<?xml version="1.0" encoding="UTF-8"?>
<svg width="130px" height="36px" viewBox="0 0 130 36" version="1.1" xmlns="http://www.w3.org/2000/svg" xmlns:xlink="http://www.w3.org/1999/xlink">
    <!-- Generator: Sketch 52.1 (67048) - http://www.bohemiancoding.com/sketch -->
    <title>global/logo/new</title>
    <desc>Created with Sketch.</desc>
    <g id="global/logo/new" stroke="none" stroke-width="1" fill="none" fill-rule="evenodd">
        <g id="Group-3" transform="translate(0.500000, 0.000000)" fill="#45F7AA" fill-rule="nonzero">
            <path d="M17.1521865,35.6467487 C13.2838891,33.995423 11.2705187,33.139996 11.1120751,33.0804678 C4.72972215,30.6825767 0.182280782,24.4671716 0.182280782,17.1775912 C0.182280782,7.81120922 7.68996121,0.218256366 16.9511544,0.218256366 C21.750551,0.218256366 26.0790263,2.25741071 29.135748,5.52579118 C29.1860699,5.57959754 29.2301074,5.63021377 29.2680327,5.67775872 C31.6055324,7.92971759 33.0467318,11.2692007 33.0467318,14.469142 L17.7543735,7.30897726 L10.1149003,10.8789233 L25.4028107,18.052688 L33.0467318,21.5833867 L33.0467318,28.7759751 L25.3938592,25.2024327 L10.1131225,18.0461866 L2.52113194,21.5939615 C2.52609521,21.6080646 7.42740917,23.9233926 17.2250738,28.5399456 L17.1521865,35.6467487 Z" id="Combined-Shape"></path>
        </g>
        <path d="M44.7547407,14.063 C43.3687407,14.063 42.1447407,13.631 41.1727407,12.767 L42.4867407,10.949 C43.2247407,11.615 43.9807407,11.939 44.7907407,11.939 C45.3487407,11.939 45.6367407,11.741 45.6367407,11.417 C45.6367407,11.129 45.3667407,10.949 44.2687407,10.607 C42.7927407,10.157 41.4967407,9.437 41.4967407,7.745 C41.4967407,5.963 42.9547407,4.937 44.7907407,4.937 C46.1227407,4.937 47.0947407,5.279 48.1207407,6.035 L46.7887407,7.997 C46.1767407,7.385 45.4207407,7.079 44.8267407,7.079 C44.5027407,7.079 44.1247407,7.223 44.1247407,7.565 C44.1247407,7.835 44.4487407,8.033 45.3307407,8.339 C47.2747407,9.005 48.3367407,9.509 48.3367407,11.237 C48.3367407,12.875 47.1667407,14.063 44.7547407,14.063 Z M58.1827407,9.401 C58.1827407,9.653 58.1467407,10.067 58.1287407,10.247 L52.1347407,10.247 C52.3147407,11.255 53.1607407,11.777 54.2407407,11.777 C54.9607407,11.759 55.6987407,11.489 56.2927407,10.823 L57.9127407,12.479 C57.1747407,13.397 55.9507407,14.063 53.9527407,14.063 C51.2887407,14.063 49.3447407,12.227 49.3447407,9.491 C49.3447407,6.827 51.2167407,4.937 53.8807407,4.937 C56.3647407,4.937 58.1827407,6.791 58.1827407,9.401 Z M53.8447407,7.169 C52.9807407,7.169 52.3327407,7.691 52.1527407,8.573 L55.4467407,8.573 C55.2667407,7.709 54.6907407,7.169 53.8447407,7.169 Z M59.6767407,13.901 L59.6767407,5.099 L62.4847407,5.099 L62.4847407,6.143 L62.5027407,6.143 C63.1867407,5.351 64.0687407,4.937 64.9867407,4.937 C66.1027407,4.937 67.0207407,5.333 67.5427407,6.251 L67.5787407,6.251 C68.2807407,5.369 69.3247407,4.937 70.5487407,4.937 C72.4027407,4.937 73.6627407,5.999 73.6627407,8.771 L73.6627407,13.901 L70.8547407,13.901 L70.8547407,9.419 C70.8547407,8.267 70.5487407,7.439 69.5767407,7.439 C68.7667407,7.439 68.1007407,8.105 68.1007407,9.491 L68.1007407,13.901 L65.2927407,13.901 L65.2927407,9.419 C65.2927407,8.267 64.9507407,7.439 64.0147407,7.439 C63.1327407,7.439 62.4847407,8.105 62.4847407,9.491 L62.4847407,13.901 L59.6767407,13.901 Z M75.6067407,13.901 L75.6067407,5.099 L78.4147407,5.099 L78.4147407,13.901 L75.6067407,13.901 Z M47.0587407,31.063 C45.9787407,31.063 45.1327407,30.703 44.5567407,29.965 L44.5207407,29.965 L44.5207407,30.901 L41.8567407,30.901 L41.8567407,18.653 L44.6647407,18.653 L44.6647407,23.035 L44.7007407,23.035 C45.3307407,22.297 46.2127407,21.937 47.2027407,21.937 C49.4887407,21.937 51.2167407,23.809 51.2167407,26.509 C51.2167407,29.227 49.4887407,31.063 47.0587407,31.063 Z M46.5007407,28.579 C47.5807407,28.579 48.3727407,27.751 48.3727407,26.509 C48.3727407,25.249 47.5627407,24.421 46.4827407,24.421 C45.3487407,24.421 44.5387407,25.303 44.5387407,26.509 C44.5387407,27.769 45.3847407,28.579 46.5007407,28.579 Z M56.4187407,31.063 C54.0067407,31.063 52.2607407,29.227 52.2607407,26.509 C52.2607407,23.809 54.0067407,21.937 56.2747407,21.937 C57.2107407,21.937 58.0927407,22.315 58.7047407,23.035 L58.7407407,23.017 L58.7407407,22.099 L61.5667407,22.099 L61.5667407,30.901 L58.8847407,30.901 L58.8847407,29.983 L58.8487407,29.965 C58.2727407,30.703 57.4807407,31.063 56.4187407,31.063 Z M57.0127407,28.579 C58.0207407,28.579 58.8667407,27.769 58.8667407,26.509 C58.8667407,25.303 58.0567407,24.421 57.0127407,24.421 C55.9327407,24.421 55.1227407,25.249 55.1227407,26.509 C55.1227407,27.751 55.8967407,28.579 57.0127407,28.579 Z M66.3547407,31.063 C64.9687407,31.063 63.7447407,30.631 62.7727407,29.767 L64.0867407,27.949 C64.8247407,28.615 65.5807407,28.939 66.3907407,28.939 C66.9487407,28.939 67.2367407,28.741 67.2367407,28.417 C67.2367407,28.129 66.9667407,27.949 65.8687407,27.607 C64.3927407,27.157 63.0967407,26.437 63.0967407,24.745 C63.0967407,22.963 64.5547407,21.937 66.3907407,21.937 C67.7227407,21.937 68.6947407,22.279 69.7207407,23.035 L68.3887407,24.997 C67.7767407,24.385 67.0207407,24.079 66.4267407,24.079 C66.1027407,24.079 65.7247407,24.223 65.7247407,24.565 C65.7247407,24.835 66.0487407,25.033 66.9307407,25.339 C68.8747407,26.005 69.9367407,26.509 69.9367407,28.237 C69.9367407,29.875 68.7667407,31.063 66.3547407,31.063 Z M79.7827407,26.401 C79.7827407,26.653 79.7467407,27.067 79.7287407,27.247 L73.7347407,27.247 C73.9147407,28.255 74.7607407,28.777 75.8407407,28.777 C76.5607407,28.759 77.2987407,28.489 77.8927407,27.823 L79.5127407,29.479 C78.7747407,30.397 77.5507407,31.063 75.5527407,31.063 C72.8887407,31.063 70.9447407,29.227 70.9447407,26.491 C70.9447407,23.827 72.8167407,21.937 75.4807407,21.937 C77.9647407,21.937 79.7827407,23.791 79.7827407,26.401 Z M75.4447407,24.169 C74.5807407,24.169 73.9327407,24.691 73.7527407,25.573 L77.0467407,25.573 C76.8667407,24.709 76.2907407,24.169 75.4447407,24.169 Z M81.2767407,30.901 L81.2767407,22.099 L84.0847407,22.099 L84.0847407,23.143 L84.1027407,23.143 C84.7867407,22.351 85.6687407,21.937 86.5867407,21.937 C87.7027407,21.937 88.6207407,22.333 89.1427407,23.251 L89.1787407,23.251 C89.8807407,22.369 90.9247407,21.937 92.1487407,21.937 C94.0027407,21.937 95.2627407,22.999 95.2627407,25.771 L95.2627407,30.901 L92.4547407,30.901 L92.4547407,26.419 C92.4547407,25.267 92.1487407,24.439 91.1767407,24.439 C90.3667407,24.439 89.7007407,25.105 89.7007407,26.491 L89.7007407,30.901 L86.8927407,30.901 L86.8927407,26.419 C86.8927407,25.267 86.5507407,24.439 85.6147407,24.439 C84.7327407,24.439 84.0847407,25.105 84.0847407,26.491 L84.0847407,30.901 L81.2767407,30.901 Z M105.522741,26.401 C105.522741,26.653 105.486741,27.067 105.468741,27.247 L99.4747407,27.247 C99.6547407,28.255 100.500741,28.777 101.580741,28.777 C102.300741,28.759 103.038741,28.489 103.632741,27.823 L105.252741,29.479 C104.514741,30.397 103.290741,31.063 101.292741,31.063 C98.6287407,31.063 96.6847407,29.227 96.6847407,26.491 C96.6847407,23.827 98.5567407,21.937 101.220741,21.937 C103.704741,21.937 105.522741,23.791 105.522741,26.401 Z M101.184741,24.169 C100.320741,24.169 99.6727407,24.691 99.4927407,25.573 L102.786741,25.573 C102.606741,24.709 102.030741,24.169 101.184741,24.169 Z M107.016741,30.901 L107.016741,22.099 L109.824741,22.099 L109.824741,23.125 L109.860741,23.125 C110.544741,22.333 111.480741,21.937 112.506741,21.937 C114.324741,21.937 115.656741,22.837 115.656741,25.627 L115.656741,30.901 L112.848741,30.901 L112.848741,26.311 C112.848741,24.853 112.362741,24.439 111.444741,24.439 C110.472741,24.439 109.824741,25.105 109.824741,26.473 L109.824741,30.901 L107.016741,30.901 Z M120.354741,31.063 C118.842741,31.063 117.762741,30.127 117.762741,28.129 L117.762741,24.367 L116.772741,24.367 L116.772741,22.099 L117.762741,22.099 L117.762741,19.273 L120.588741,18.985 L120.588741,22.099 L122.712741,22.099 L122.712741,24.367 L120.588741,24.367 L120.588741,27.607 C120.588741,28.183 120.714741,28.597 121.254741,28.597 C121.452741,28.597 121.812741,28.543 122.118741,28.399 L122.820741,30.469 C122.208741,30.811 121.578741,31.063 120.354741,31.063 Z" id="semi-basement" fill="#FFFFFF"></path>
    </g>
</svg>